<?xml version="1.0" standalone="no"?>
<!DOCTYPE svg PUBLIC "-//W3C//DTD SVG 1.1//EN" "http://www.w3.org/Graphics/SVG/1.1/DTD/svg11.dtd" >
<svg xmlns="http://www.w3.org/2000/svg">
<metadata></metadata>
<defs>
<font id="hans_kendricklight" horiz-adv-x="1304" >
<font-face units-per-em="2048" ascent="1638" descent="-410" />
<missing-glyph horiz-adv-x="614" />
<glyph horiz-adv-x="0" />
<glyph horiz-adv-x="682" />
<glyph unicode=" "  horiz-adv-x="614" />
<glyph unicode="&#x09;" horiz-adv-x="614" />
<glyph unicode="&#xa0;" horiz-adv-x="614" />
<glyph unicode="!" horiz-adv-x="643" d="M236 86q0 36 25 61t61 25q35 0 60.5 -25.5t25.5 -60.5q0 -36 -25 -61t-61 -25q-37 0 -61.5 24.5t-24.5 61.5zM281 403v1153h81v-1153h-81z" />
<glyph unicode="&#x22;" horiz-adv-x="833" d="M164 1536h108l-20 -487h-27zM561 1536h109l-62 -487h-26z" />
<glyph unicode="#" horiz-adv-x="1525" d="M168 350l10 72h234l82 561h-234l10 70h230l51 352h96l-49 -352h430l49 352h97l-50 -352h234l-10 -70h-234l-78 -561h232l-11 -72h-231l-51 -350h-96l49 350h-430l-49 -350h-97l49 350h-233zM508 422h430l80 561h-430z" />
<glyph unicode="$" horiz-adv-x="1214" d="M133 223l82 35q50 -85 146.5 -135.5t220.5 -56.5v675q-63 25 -104.5 44t-91.5 46.5t-81.5 56t-60 66t-41.5 84t-13 101.5q0 154 109.5 271.5t282.5 145.5v164h65v-164q104 -12 186.5 -59.5t135.5 -120.5l-84 -35q-82 98 -238 129v-663q76 -31 127 -55t108 -61.5t90 -77 t55 -96t22 -124.5q0 -151 -112.5 -261t-289.5 -148v-168h-65v164q-151 5 -271 69.5t-178 173.5zM281 1139q0 -103 75.5 -173.5t225.5 -134.5v639q-140 -35 -220.5 -124.5t-80.5 -206.5zM647 74q141 37 226 120t85 199q0 60 -22 108t-69 87t-94.5 66t-125.5 63v-643z" />
<glyph unicode="%" horiz-adv-x="1472" d="M164 1276q0 115 84 197.5t201 82.5q118 0 202 -82t84 -198q0 -117 -84 -200t-202 -83q-117 0 -201 83t-84 200zM190 0l988 1536h102l-987 -1536h-103zM233 1276q0 -89 63 -151t153 -62q91 0 154 62t63 151q0 88 -63.5 150.5t-153.5 62.5q-89 0 -152.5 -62.5t-63.5 -150.5 zM735 260q0 117 85 200t204 83q116 0 200.5 -83.5t84.5 -199.5q0 -115 -84.5 -197.5t-200.5 -82.5q-119 0 -204 82.5t-85 197.5zM805 260q0 -90 64 -151.5t155 -61.5q86 0 150.5 62t64.5 151t-64.5 151t-150.5 62q-91 0 -155 -61.5t-64 -151.5z" />
<glyph unicode="&#x26;" horiz-adv-x="1458" d="M98.5 334.5q-33.5 126.5 0 253t126.5 219.5l131 129l-22 25q-100 98 -100 238.5t100 238.5q98 98 238.5 98t240.5 -98q94 -94 98.5 -225t-84.5 -236l-63 61q62 78 58.5 173.5t-72.5 162.5q-72 74 -177 74t-178 -74q-72 -72 -72 -175t72 -177l656 -651l249 247l64 -63 l-250 -246l246 -243l-64 -64l-245 244l-131 -131q-142 -142 -347 -142q-203 0 -348 142q-93 93 -126.5 219.5zM183.5 358q27.5 -103 105.5 -180q119 -117 285 -117t284 117l131 131l-569 565l-131 -131q-78 -77 -105.5 -179.5t0 -205.5z" />
<glyph unicode="'" horiz-adv-x="485" d="M186 1536h109l-41 -487h-27z" />
<glyph unicode="(" horiz-adv-x="972" d="M225 532q0 73 6 154t22 180.5t41 191.5t66.5 181.5t94 157t128 112.5t165.5 52v-84q-73 -9 -135 -55.5t-105.5 -114.5t-77.5 -155.5t-55 -174.5t-34.5 -175.5t-18.5 -154.5t-5 -115q0 -50 5 -115.5t18.5 -154t34.5 -175t55 -173.5t77.5 -155t105.5 -114t135 -55v-84 q-90 7 -165.5 51t-128 111t-94 156.5t-66.5 181.5t-41 191t-22 180t-6 155z" />
<glyph unicode=")" horiz-adv-x="972" d="M225 -410q73 9 135 55t105 114t77.5 155t55 173.5t34 175t18.5 154t5 115.5q0 49 -5 115t-18.5 154.5t-34 175.5t-55 174.5t-77.5 155.5t-105 114.5t-135 55.5v84q90 -7 165.5 -52t128 -112.5t94 -157t66.5 -181.5t41 -191.5t22 -180.5t6 -154q0 -74 -6 -155t-22 -180 t-41 -191t-66.5 -181.5t-94 -156.5t-128 -111t-165.5 -51v84z" />
<glyph unicode="*" horiz-adv-x="737" d="M143 1292v92l174 -16l-102 141l82 47l72 -157l71 157l82 -47l-102 -141l174 16v-92l-174 17l102 -142l-82 -47l-71 158l-72 -158l-82 47l102 142z" />
<glyph unicode="+" horiz-adv-x="1429" d="M143 457v61h539v510h66v-510h538v-61h-538v-510h-66v510h-539z" />
<glyph unicode="," horiz-adv-x="520" d="M119 -240l90 447h131l-164 -447h-57z" />
<glyph unicode="-" horiz-adv-x="856" d="M123 457v61h610v-61h-610z" />
<glyph unicode="." horiz-adv-x="561" d="M195 66q0 36 25 61t61 25q35 0 60.5 -26t25.5 -60q0 -36 -25 -61t-61 -25q-37 0 -61.5 24.5t-24.5 61.5z" />
<glyph unicode="/" horiz-adv-x="1333" d="M80 -502l1071 2058h78l-1071 -2058h-78z" />
<glyph unicode="0" horiz-adv-x="1417" d="M164 772q0 86 14 175.5t42 179.5t74 169t104 140.5t138.5 97t172.5 35.5q110 0 202.5 -51t154 -133t105 -188t63 -213.5t19.5 -211.5q0 -144 -36 -284t-102 -255.5t-172 -186.5t-234 -71q-87 0 -164 33t-136 90t-106 134t-77 166t-46 184t-16 190zM258 774 q0 -62 6 -126.5t21.5 -136t38.5 -136t59 -123.5t81.5 -101.5t108.5 -68t136 -25.5q84 0 154 34t117.5 92t83.5 130t56 154t29.5 156.5t9.5 144.5t-9 143.5t-28 157t-54 156.5t-82.5 132.5t-119 94.5t-157.5 35q-101 0 -182 -50.5t-130 -127t-81.5 -175.5t-45 -188 t-12.5 -172z" />
<glyph unicode="1" horiz-adv-x="837" d="M287 1454v82h233v-1536h-90v1454h-143z" />
<glyph unicode="2" horiz-adv-x="1294" d="M201 0l590 676q111 126 149 183q94 137 94 267q0 155 -106 258t-262 103q-157 0 -256 -97t-113 -247h-96q19 189 144 307.5t314 118.5q197 0 333 -126t136 -317q0 -151 -102 -301q-28 -42 -61 -82.5t-87.5 -102t-68.5 -77.5l-420 -481h737v-82h-925z" />
<glyph unicode="3" horiz-adv-x="1296" d="M143 348h88q34 -130 140.5 -210.5t240.5 -80.5q160 0 277 109.5t117 269.5q0 162 -117.5 267.5t-276.5 105.5h-10v80h10q99 0 172 45.5t106.5 112t33.5 141.5q0 123 -89 211t-223 88q-116 0 -203.5 -76.5t-111.5 -191.5h-92q25 150 142.5 250t264.5 100q163 0 282.5 -113 t119.5 -268q0 -192 -207 -336q287 -158 287 -416q0 -122 -65 -228.5t-176.5 -169.5t-240.5 -63q-170 0 -304.5 109t-164.5 264z" />
<glyph unicode="4" horiz-adv-x="1378" d="M90 315l914 1217v-1135h208v-82h-208v-315h-82v315h-832zM250 397h672v895z" />
<glyph unicode="5" horiz-adv-x="1296" d="M174 197l70 51q61 -86 160 -138.5t208 -52.5t205.5 50.5t157.5 146.5t61 217q0 116 -58.5 211.5t-155.5 148t-210 52.5q-82 0 -178 -27l-65 51l159 629h568v-82h-494l-131 -516l31 6q64 17 139 17q138 0 250.5 -67t175.5 -180.5t63 -248.5q0 -215 -149 -352.5 t-375 -137.5q-130 0 -244 59t-188 163z" />
<glyph unicode="6" horiz-adv-x="1433" d="M205 467q0 158 131 346l512 723h98l-459 -639q115 64 256 64q132 0 244.5 -67t177 -181t64.5 -246q0 -135 -69.5 -248.5t-187 -178.5t-255.5 -65q-140 0 -258 65t-186 178t-68 249zM299 467q0 -170 122.5 -290t295.5 -120t295.5 120t122.5 290q0 172 -122.5 292 t-295.5 120t-295.5 -120t-122.5 -292z" />
<glyph unicode="7" horiz-adv-x="1193" d="M143 0l908 1454h-901v82h1044l-956 -1536h-95z" />
<glyph unicode="8" horiz-adv-x="1286" d="M164 436q0 125 73 231.5t212 184.5q-207 144 -207 336q0 155 119 268t282 113t282 -113t119 -268q0 -191 -208 -336q143 -77 214.5 -183t71.5 -233q0 -122 -66 -228.5t-176.5 -169.5t-236.5 -63t-236.5 63t-176.5 169.5t-66 228.5zM252 436q0 -160 113.5 -269.5 t277.5 -109.5t277.5 109.5t113.5 269.5t-114 266.5t-277 106.5t-277 -106.5t-114 -266.5zM332 1188q0 -125 91.5 -212t219.5 -87q127 0 219 87t92 212q0 123 -92.5 211t-218.5 88q-129 0 -220 -88t-91 -211z" />
<glyph unicode="9" horiz-adv-x="1433" d="M203 1069q0 135 69.5 248.5t187 178.5t255.5 65q140 0 258 -65t186 -178t68 -249q0 -158 -131 -346l-512 -723h-99l459 639q-115 -64 -256 -64q-132 0 -244 67t-176.5 181t-64.5 246zM297 1069q0 -172 122.5 -292t295.5 -120t295.5 120t122.5 292q0 170 -122.5 290 t-295.5 120t-295.5 -120t-122.5 -290z" />
<glyph unicode=":" horiz-adv-x="561" d="M195 66q0 36 25 61t61 25q35 0 60.5 -26t25.5 -60q0 -36 -25 -61t-61 -25q-37 0 -61.5 24.5t-24.5 61.5zM195 897q0 36 25 61t61 25q35 0 60.5 -25.5t25.5 -60.5q0 -34 -25.5 -60t-60.5 -26q-36 0 -61 25t-25 61z" />
<glyph unicode=";" horiz-adv-x="520" d="M119 -240l90 447h131l-164 -447h-57zM176 897q0 36 25 61t61 25q35 0 60.5 -25.5t25.5 -60.5q0 -34 -25.5 -60t-60.5 -26q-36 0 -61 25t-25 61z" />
<glyph unicode="&#x3c;" horiz-adv-x="1177" d="M143 451v98l838 405l39 -77l-778 -379l780 -410l-41 -78z" />
<glyph unicode="=" horiz-adv-x="1177" d="M143 244v69h891v-69h-891zM143 647v70h891v-70h-891z" />
<glyph unicode="&#x3e;" horiz-adv-x="1177" d="M154 88l778 410l-776 379l39 77l835 -405v-98l-835 -441z" />
<glyph unicode="?" horiz-adv-x="1026" d="M102 1192q12 154 130.5 259t279.5 105q168 0 289 -116.5t121 -280.5q0 -92 -45 -164.5t-127 -150.5q-37 -37 -68 -64q-39 -39 -60.5 -64t-43 -67.5t-21.5 -83.5v-182h-88v184q0 76 42 135.5t130 139.5q45 41 72.5 69t59 69t46.5 85.5t15 93.5q0 129 -95 220t-227 91 q-123 0 -215.5 -80.5t-106.5 -197.5h-88zM442 47q0 31 19.5 50.5t50.5 19.5q32 0 52 -19.5t20 -50.5q0 -29 -20 -48t-52 -19q-31 0 -50.5 19t-19.5 48z" />
<glyph unicode="@" horiz-adv-x="1107" d="M164 492q0 133 66.5 246t180 179t246.5 66q115 0 201 -57t86 -162v-506h-82v55q-72 -75 -172 -75q-106 0 -182 75t-76 179t76 178.5t182 74.5q44 0 90.5 -19.5t81.5 -57.5v96q0 39 -20.5 67t-53.5 42t-65.5 20t-65.5 6q-169 0 -290 -119.5t-121 -287.5q0 -169 121 -289.5 t290 -120.5h277v-82h-277q-133 0 -246.5 66t-180 179.5t-66.5 246.5zM518 492q0 -72 50 -122.5t122 -50.5t122 50.5t50 122.5t-50 122t-122 50t-122 -50t-50 -122z" />
<glyph unicode="A" horiz-adv-x="1335" d="M10 0l660 1556l657 -1556h-96l-146 346h-831l-148 -346h-96zM285 420h770l-385 930z" />
<glyph unicode="B" horiz-adv-x="1208" d="M184 0v1536h475q173 0 298.5 -121.5t125.5 -290.5q0 -48 -12 -95t-37.5 -94.5t-71.5 -87.5t-108 -65q90 -31 154 -95t91 -134t27 -141q0 -169 -124 -290.5t-297 -121.5h-521zM268 86h437q138 0 235.5 95.5t97.5 230.5q0 133 -96.5 233t-232.5 100h-441v-659zM268 819h441 q136 0 211 86.5t75 218.5q0 135 -99 230.5t-237 95.5h-391v-631z" />
<glyph unicode="C" horiz-adv-x="1558" d="M143 768q0 128 40 248t114 217t171.5 170t219 113t250.5 40q151 0 293.5 -54.5t249.5 -158.5l-62 -57q-210 184 -481 184q-115 0 -223 -35.5t-195 -100.5t-153 -151.5t-102 -193.5t-36 -221t36 -221t102 -193.5t153 -151.5t195 -100.5t223 -35.5q260 0 481 184l64 -57 q-108 -103 -249.5 -158t-295.5 -55q-129 0 -250.5 40t-219 113t-171.5 170t-114 217t-40 248z" />
<glyph unicode="D" horiz-adv-x="1464" d="M184 0v1536h332q368 0 586.5 -203t218.5 -561q0 -237 -100 -412.5t-281.5 -267.5t-423.5 -92h-332zM266 86h250q330 0 524.5 181.5t194.5 504.5q0 324 -194.5 501t-524.5 177h-250v-1364z" />
<glyph unicode="E" horiz-adv-x="1110" d="M184 0v1536h783v-86h-701v-639h615v-86h-615v-639h701v-86h-783z" />
<glyph unicode="F" horiz-adv-x="1028" d="M184 0v1536h783v-86h-701v-639h637v-86h-637v-725h-82z" />
<glyph unicode="G" horiz-adv-x="1699" d="M164 768q0 160 63 306t169.5 251.5t253.5 168t308 62.5q137 0 266 -44t230 -128l-57 -63q-194 149 -439 149q-143 0 -274 -55.5t-226 -149.5t-151.5 -224.5t-56.5 -272.5t56.5 -272.5t151.5 -224.5t226 -149.5t274 -55.5q266 0 474 178v481h-461v86h545v-811h-84v133 q-130 -82 -243 -117.5t-231 -35.5q-161 0 -308 62.5t-253.5 168t-169.5 251.5t-63 306z" />
<glyph unicode="H" horiz-adv-x="1460" d="M184 0v1536h82v-725h928v725h82v-1536h-82v725h-928v-725h-82z" />
<glyph unicode="I" horiz-adv-x="512" d="M205 0v1536h100v-1536h-100z" />
<glyph unicode="J" horiz-adv-x="731" d="M92 -8v92q68 -18 158 -18q85 0 148 53t63 127v1290h86v-1290q0 -109 -87 -187.5t-210 -78.5q-97 0 -158 12z" />
<glyph unicode="K" horiz-adv-x="1239" d="M184 0v1536h88v-766l777 766h122l-782 -768l782 -768h-122l-777 766v-766h-88z" />
<glyph unicode="L" horiz-adv-x="913" d="M184 0v1536h101v-1450h546v-86h-647z" />
<glyph unicode="M" horiz-adv-x="1783" d="M184 0v1575q10 -22 187 -282t349 -509l171 -249l708 1021v-1556h-81v1294l-627 -903l-625 903v-1294h-82z" />
<glyph unicode="N" horiz-adv-x="1515" d="M184 0v1556l1065 -1349v1329h82v-1567l-1065 1334v-1303h-82z" />
<glyph unicode="O" horiz-adv-x="1871" d="M143 768q0 160 63.5 306t170 251.5t253 168t306.5 62.5t306.5 -62.5t253 -168t170 -251.5t63.5 -306t-63.5 -306.5t-170 -251.5t-253 -167.5t-306.5 -62.5t-306.5 62.5t-253 167.5t-170 251.5t-63.5 306.5zM229 768q0 -191 96 -353t258.5 -255.5t352.5 -93.5 q142 0 272.5 55.5t225.5 149t151.5 224t56.5 273.5q0 114 -36 221t-102 193.5t-153 151.5t-194 100.5t-221 35.5q-115 0 -222.5 -35.5t-194.5 -100.5t-152.5 -151.5t-101.5 -193.5t-36 -221z" />
<glyph unicode="P" horiz-adv-x="1134" d="M184 0v1536h463q175 0 300.5 -122t125.5 -292t-125.5 -290.5t-300.5 -120.5h-381v-711h-82zM266 797h381q140 0 239 95t99 230q0 136 -99 232t-239 96h-381v-653z" />
<glyph unicode="Q" horiz-adv-x="1871" d="M143 768q0 160 63.5 306t170 251.5t253 168t306.5 62.5t306.5 -62.5t253 -168t170 -251.5t63.5 -306q0 -299 -222 -547l168 -168l-61 -61l-170 170q-240 -182 -508 -182q-160 0 -306.5 62.5t-253 167.5t-170 251.5t-63.5 306.5zM229 768q0 -143 56 -273t151 -224 t226 -149.5t274 -55.5q120 0 227.5 36.5t218.5 120.5l-211 213l62 62l213 -217q196 217 196 487q0 114 -36 221t-102 193.5t-153 151.5t-194 100.5t-221 35.5q-115 0 -222.5 -35.5t-194.5 -100.5t-152.5 -151.5t-101.5 -193.5t-36 -221z" />
<glyph unicode="R" horiz-adv-x="1189" d="M184 0v1536h461q175 0 299.5 -122t124.5 -292q0 -134 -89 -244t-243 -159l371 -719h-100l-363 711h-379v-711h-82zM266 797h379q138 0 237 95t99 230t-99 231.5t-237 96.5h-379v-653z" />
<glyph unicode="S" horiz-adv-x="1112" d="M92 225l84 35q49 -89 148.5 -140.5t203.5 -51.5q93 0 181.5 38t149.5 115t61 174q0 58 -21.5 105.5t-62 83t-81.5 59.5t-98 49q-20 9 -43.5 19t-52.5 22t-45 19q-68 27 -114 49t-97.5 57t-82 72.5t-50.5 91.5t-20 119q0 172 126.5 293.5t303.5 121.5q103 0 196.5 -47 t151.5 -129l-84 -34q-47 58 -116.5 90t-147.5 32q-139 0 -239.5 -96.5t-100.5 -230.5q0 -57 21.5 -104t62.5 -82t81 -58.5t97 -48.5q118 -47 141 -57q68 -27 114 -49.5t97.5 -57.5t82 -73.5t51 -93.5t20.5 -122q0 -117 -69.5 -213.5t-179.5 -149t-233 -52.5 q-133 0 -255 66.5t-181 178.5z" />
<glyph unicode="T" horiz-adv-x="968" d="M10 1450v86h948v-86h-434v-1450h-80v1450h-434z" />
<glyph unicode="U" horiz-adv-x="1331" d="M174 416v1120h88v-1120q0 -140 116.5 -245t287.5 -105q175 0 289 104.5t114 245.5v1120h88v-1120q0 -113 -64.5 -213t-178.5 -161.5t-248 -61.5q-133 0 -247 61.5t-179.5 162t-65.5 212.5z" />
<glyph unicode="V" horiz-adv-x="1335" d="M10 1536h96l564 -1350l561 1350h96l-657 -1556z" />
<glyph unicode="W" horiz-adv-x="1996" d="M-41 1536h94l637 -1362l262 557l-370 805h94l323 -705l326 705h92l-370 -805l264 -557l637 1362h92l-727 -1556l-314 653l-309 -653z" />
<glyph unicode="X" horiz-adv-x="1155" d="M10 0l516 772l-510 764h105l457 -688l460 688h103l-510 -764l516 -772h-105l-464 696l-463 -696h-105z" />
<glyph unicode="Y" horiz-adv-x="1144" d="M10 1536h105l456 -688l461 688h105l-521 -778v-758h-88v758z" />
<glyph unicode="Z" horiz-adv-x="1286" d="M86 0l932 1450h-914v86h1072l-936 -1450h962v-86h-1116z" />
<glyph unicode="[" horiz-adv-x="630" d="M143 -502v2038h344v-84h-264v-1870h264v-84h-344z" />
<glyph unicode="\" horiz-adv-x="1333" d="M100 1556h78l1071 -2058h-78z" />
<glyph unicode="]" horiz-adv-x="630" d="M139 -418h269v1870h-265v84h344v-2038h-348v84z" />
<glyph unicode="^" horiz-adv-x="897" d="M51 823l332 740h129l332 -740h-105l-293 703l-290 -703h-105z" />
<glyph unicode="_" horiz-adv-x="1429" d="M143 0v61h1143v-61h-1143z" />
<glyph unicode="`" horiz-adv-x="0" d="M-334 1536h123l236 -362h-43z" />
<glyph unicode="a" d="M123 481q0 136 67.5 251.5t183 183t251.5 67.5q126 0 235 -59t178 -160v199h82v-963h-82v199q-69 -101 -178 -160t-235 -59q-136 0 -251.5 67t-183 182.5t-67.5 251.5zM211 481q0 -170 122 -291.5t292 -121.5t291.5 121.5t121.5 291.5t-121.5 292t-291.5 122t-292 -122 t-122 -292z" />
<glyph unicode="b" horiz-adv-x="1300" d="M184 0v1536h80v-774q69 102 178 161.5t236 59.5q136 0 251.5 -67.5t183 -183t67.5 -251.5t-67.5 -251.5t-183 -182.5t-251.5 -67q-127 0 -236 59t-178 160v-199h-80zM264 481q0 -171 122 -293t292 -122t292 122t122 293q0 170 -122 292t-292 122t-292 -122t-122 -292z " />
<glyph unicode="c" horiz-adv-x="1187" d="M123 481q0 136 67.5 251.5t183.5 183t253 67.5q141 0 260.5 -74t185.5 -200l-80 -33q-54 101 -153 160t-213 59q-172 0 -294 -122t-122 -292t122 -291.5t294 -121.5q114 0 213 58.5t151 158.5l82 -35q-63 -123 -185 -196.5t-261 -73.5q-137 0 -253 67t-183.5 182.5 t-67.5 251.5z" />
<glyph unicode="d" d="M123 481q0 136 67.5 251.5t183 183t251.5 67.5q126 0 235 -59t178 -160v772h82v-1536h-82v199q-69 -101 -178 -160t-235 -59q-136 0 -251.5 67t-183 182.5t-67.5 251.5zM211 481q0 -170 122 -291.5t292 -121.5t291.5 121.5t121.5 291.5t-121.5 292t-291.5 122t-292 -122 t-122 -292z" />
<glyph unicode="e" horiz-adv-x="1249" d="M123 481q0 136 67.5 251.5t183 183t251.5 67.5q199 0 343 -136t158 -333h-915v-33q0 -170 122 -291.5t292 -121.5q116 0 213 59t151 158l80 -37q-64 -122 -182.5 -195t-261.5 -73q-136 0 -251.5 67t-183 182.5t-67.5 251.5zM227 602h795q-40 128 -149.5 210.5 t-247.5 82.5t-248 -82.5t-150 -210.5z" />
<glyph unicode="f" horiz-adv-x="661" d="M102 885v78h177v335q0 113 68.5 190t184.5 77q60 0 89 -29v-88q-10 14 -38 22.5t-55 8.5q-79 0 -123.5 -51.5t-44.5 -129.5v-335h261v-78h-261v-885h-81v885h-177z" />
<glyph unicode="g" horiz-adv-x="1310" d="M123 492q0 202 147.5 346.5t354.5 144.5q115 0 224.5 -53.5t188.5 -169.5v203h88v-973q0 -99 -40 -190.5t-107 -157.5t-159.5 -105t-194.5 -39q-141 0 -259.5 71.5t-185.5 192.5l80 35q55 -99 150.5 -156t214.5 -57q170 0 291.5 119.5t121.5 286.5v233 q-78 -117 -187 -170t-226 -53q-136 0 -251.5 66t-183 179.5t-67.5 246.5zM211 492q0 -167 122 -286.5t292 -119.5t291.5 119.5t121.5 286.5q0 169 -120.5 287t-292.5 118q-170 0 -292 -119t-122 -286z" />
<glyph unicode="h" horiz-adv-x="1056" d="M184 0v1536h82v-743q52 79 135.5 123.5t178.5 44.5q149 0 246.5 -103t97.5 -254v-604h-88v604q0 118 -77 194t-196 76q-114 0 -205.5 -76.5t-91.5 -187.5v-610h-82z" />
<glyph unicode="i" horiz-adv-x="561" d="M205 1227q0 32 22 54t54 22t53.5 -22t21.5 -54t-21.5 -54t-53.5 -22t-54 22t-22 54zM238 0v963h88v-963h-88z" />
<glyph unicode="j" horiz-adv-x="561" d="M205 1227q0 32 22 54t54 22t53.5 -22t21.5 -54t-21.5 -54t-53.5 -22t-54 22t-22 54zM238 -498v1461h88v-1461h-88z" />
<glyph unicode="k" horiz-adv-x="1019" d="M201 0v1536h84v-1030l469 432h129l-498 -444l557 -494h-129l-528 477v-477h-84z" />
<glyph unicode="l" horiz-adv-x="512" d="M215 0v1536h82v-1536h-82z" />
<glyph unicode="m" horiz-adv-x="1665" d="M184 0v963h82v-144q52 77 130 120.5t171 43.5q176 0 295 -188q52 87 144 137.5t194 50.5q148 0 240 -107t92 -258v-618h-80v618q0 112 -77.5 197.5t-188.5 85.5q-116 0 -202.5 -80.5t-86.5 -195.5v-625h-84v625q0 113 -74.5 194.5t-187.5 81.5q-112 0 -198.5 -82.5 t-86.5 -193.5v-625h-82z" />
<glyph unicode="n" horiz-adv-x="1056" d="M184 0v963h82v-140q56 74 139.5 117t174.5 43q151 0 247.5 -105.5t96.5 -259.5v-618h-82v618q0 116 -82 198.5t-197 82.5q-116 0 -206.5 -80t-90.5 -194v-625h-82z" />
<glyph unicode="o" horiz-adv-x="1249" d="M123 481q0 136 67.5 251.5t183 183t251.5 67.5t251.5 -67.5t182.5 -183t67 -251.5q0 -102 -40 -194.5t-107 -159.5t-159.5 -107t-194.5 -40q-136 0 -251.5 67t-183 182.5t-67.5 251.5zM211 481q0 -170 122 -291.5t292 -121.5t291.5 121.5t121.5 291.5t-121.5 292 t-291.5 122t-292 -122t-122 -292z" />
<glyph unicode="p" d="M184 -498v1461h82v-199q69 100 178.5 159.5t235.5 59.5q136 0 251.5 -67.5t183 -183t67.5 -251.5t-67.5 -251.5t-183 -182.5t-251.5 -67q-126 0 -235.5 59.5t-178.5 159.5v-697h-82zM266 481q0 -170 122 -291.5t292 -121.5q171 0 293.5 121.5t122.5 291.5t-123 292 t-293 122t-292 -122t-122 -292z" />
<glyph unicode="q" d="M123 481q0 136 67.5 251.5t183 183t251.5 67.5q126 0 235 -59t178 -160v199h82v-1461h-82v697q-69 -101 -178 -160t-235 -59q-136 0 -251.5 67t-183 182.5t-67.5 251.5zM211 481q0 -170 122 -291.5t292 -121.5t291.5 121.5t121.5 291.5t-121.5 292t-291.5 122t-292 -122 t-122 -292z" />
<glyph unicode="r" horiz-adv-x="727" d="M195 0v961h84v-175q38 85 107 136q68 51 144 59q23 2 47 2q53 0 109 -12v-86q-51 11 -97 11q-115 0 -197 -71q-112 -99 -113 -293v-532h-84z" />
<glyph unicode="s" horiz-adv-x="784" d="M90 156l84 34q25 -56 86.5 -89t126.5 -33q85 0 155 50.5t70 133.5q0 46 -27.5 81t-72 57.5t-98.5 42.5t-107.5 43t-98 51.5t-72 75.5t-27.5 108q0 114 84 193t200 79q75 0 140 -34.5t104 -98.5l-84 -35q-27 38 -70.5 59t-89.5 21q-79 0 -135.5 -53t-56.5 -131 q0 -46 27.5 -80.5t72 -57t98 -42t106.5 -42.5t97.5 -52t72 -76t27.5 -109q0 -79 -47.5 -142.5t-119 -96.5t-148.5 -33q-95 0 -178 47t-119 129z" />
<glyph unicode="t" horiz-adv-x="692" d="M100 885v78h205v342h82v-342h205v-78h-205v-885h-82v885h-205z" />
<glyph unicode="u" horiz-adv-x="1058" d="M154 346v617h82v-617q0 -114 88 -200.5t204 -86.5q119 0 207 86t88 201v617h82v-617q0 -152 -110.5 -259t-266.5 -107q-155 0 -264.5 107t-109.5 259z" />
<glyph unicode="v" horiz-adv-x="1044" d="M78 963h98l348 -758h6l336 758h97l-431 -963h-14z" />
<glyph unicode="w" horiz-adv-x="1576" d="M78 963h94l317 -762l297 739l301 -739l316 762h96l-409 -963h-19l-285 725l-284 -725h-19z" />
<glyph unicode="x" horiz-adv-x="1099" d="M96 0l396 481l-396 482h115l336 -414l338 414h114l-395 -482l395 -481h-114l-338 414l-336 -414h-115z" />
<glyph unicode="y" horiz-adv-x="1085" d="M80 963h102l381 -809l344 809h101l-637 -1465h-99l246 553z" />
<glyph unicode="z" horiz-adv-x="997" d="M68 0l675 887h-632v76h786l-672 -889h709v-74h-866z" />
<glyph unicode="{" horiz-adv-x="753" d="M174 492v81q37 18 63.5 40t43 51t26.5 54.5t14.5 65.5t5.5 68.5t1 77.5v381q0 99 50.5 173.5t133.5 74.5h68v-76q-85 -5 -126.5 -50t-41.5 -143v-391q0 -45 -3 -80t-12.5 -77.5t-26 -76.5t-46 -69.5t-70.5 -63.5q51 -35 84 -78.5t48.5 -93.5t20.5 -93.5t5 -100.5v-393 q0 -98 41.5 -143t126.5 -50v-76h-68q-83 0 -133.5 74.5t-50.5 173.5v383v20.5v22v20.5t-0.5 22t-1.5 20.5t-2 22.5t-2.5 20.5t-3.5 21.5t-5 19.5t-6 19.5q-32 97 -133 148z" />
<glyph unicode="|" horiz-adv-x="512" d="M215 -465v2001h82v-2001h-82z" />
<glyph unicode="}" horiz-adv-x="753" d="M174 -420q85 5 126.5 50t41.5 143v393q0 57 5 100.5t20.5 93.5t48.5 93.5t84 78.5q-41 28 -70.5 63.5t-46 69.5t-26 76.5t-12.5 77.5t-3 80v391q0 98 -41.5 143t-126.5 50v76h68q83 0 133.5 -74.5t50.5 -173.5v-381q0 -49 1 -77.5t5.5 -68.5t14.5 -65.5t26.5 -54.5 t43 -51t63.5 -40v-81q-102 -51 -134 -148q-5 -13 -8.5 -27t-5.5 -31t-3.5 -28t-2 -33t-0.5 -29v-32.5v-28.5v-383q0 -99 -50.5 -173.5t-133.5 -74.5h-68v76z" />
<glyph unicode="~" horiz-adv-x="958" d="M123 434q18 36 34 61.5t40.5 55.5t55 45.5t66.5 15.5q38 0 84.5 -21t82.5 -45.5t78.5 -45.5t72.5 -21q36 0 70 41.5t55 87.5l74 -30q-83 -179 -199 -179q-38 0 -84.5 21t-82.5 45.5t-78.5 45.5t-72.5 21q-39 0 -71 -39t-53 -87z" />
<glyph unicode="&#xa1;" horiz-adv-x="643" d="M236 1470q0 37 24.5 61.5t61.5 24.5q36 0 61 -25t25 -61q0 -35 -25.5 -60.5t-60.5 -25.5q-36 0 -61 25t-25 61zM281 0v1153h81v-1153h-81z" />
<glyph unicode="&#xa2;" horiz-adv-x="1167" d="M123 481q0 188 130 327t335 167v178h65v-178q144 -17 252.5 -87t167.5 -181l-80 -33q-96 178 -340 215v-817q246 41 338 217l82 -37q-58 -108 -166.5 -177.5t-253.5 -86.5v-174h-65v174q-204 26 -334.5 165.5t-130.5 327.5zM211 481q0 -150 103 -262.5t274 -144.5v815 q-171 -32 -274 -145t-103 -263z" />
<glyph unicode="&#xa3;" horiz-adv-x="1654" d="M326 4l73 47q62 40 103.5 73.5t75 70t50.5 79t27 89.5t7.5 115t-10.5 141.5t-25 181.5q-8 54 -9 67h-176v80h172q7 265 142 420q67 78 160.5 123t187.5 45h254v-80h-254q-70 0 -148 -34.5t-141 -106.5q-111 -127 -121 -367h664v-80h-660l9 -55q19 -127 26 -208t4.5 -163 t-23.5 -142t-59.5 -120.5t-101.5 -122.5h805v-80h-1032v27z" />
<glyph unicode="&#xa4;" horiz-adv-x="1290" d="M123 614q0 87 27 163t92 177l-82 82l47 47l86 -88q98 71 177 101t175 30t175 -30t177 -101l86 88l47 -47l-81 -82q65 -100 91.5 -176.5t26.5 -163.5t-26.5 -163.5t-91.5 -176.5l81 -81l-47 -48l-86 88q-98 -71 -177 -101t-175 -30t-175 30t-177 101l-86 -88l-47 48l82 81 q-65 101 -92 177t-27 163zM207 614q2 -113 60 -211.5t159 -157.5t219 -59q178 0 305.5 127t130.5 301q3 183 -123.5 305.5t-312.5 122.5q-187 0 -314 -122.5t-124 -305.5z" />
<glyph unicode="&#xa5;" d="M117 1536h98l434 -688l436 688h99l-492 -776h416v-64h-418v-247h418v-64h-418v-385h-82v385h-415v64h415v247h-415v64h413z" />
<glyph unicode="&#xa6;" horiz-adv-x="409" d="M164 467h82v-961h-82v961zM164 760v960h82v-960h-82z" />
<glyph unicode="&#xa7;" horiz-adv-x="1267" d="M164 848q0 50 17 96.5t51.5 88t64.5 70t76 66.5q-107 137 -107 238q0 86 36 154t94 108t133.5 57t151.5 8t150.5 -45.5t129.5 -97.5l-68 -55q-62 66 -152.5 94.5t-171.5 16t-138.5 -74t-57.5 -161.5q0 -51 15.5 -91t47.5 -70t64.5 -50t81.5 -43l264 -129 q40 -19 65.5 -32.5t59 -35t54.5 -43t40.5 -49.5t29 -62.5t9.5 -74.5q0 -87 -55 -163.5t-144 -155.5q72 -62 99.5 -111.5t27.5 -136.5q0 -99 -45.5 -177t-118 -121t-165.5 -55t-186 10t-182.5 85.5t-150.5 161.5l72 53q71 -113 160.5 -170t214.5 -57q118 0 205.5 76.5 t87.5 193.5q0 71 -42 127.5t-109 95t-148 72.5t-162 69.5t-148 77t-109 103t-42 139.5zM270 879q0 -88 47 -142t136 -96l387 -184q69 49 116.5 114.5t47.5 137.5q0 85 -48 139t-135 96l-387 184q-164 -125 -164 -249z" />
<glyph unicode="&#xa8;" d="M399 1739q0 33 21.5 54.5t54.5 21.5q32 0 54 -22t22 -54q0 -33 -21.5 -54.5t-54.5 -21.5q-34 0 -55 21t-21 55zM762 1739q0 33 21.5 54.5t54.5 21.5q32 0 53.5 -22t21.5 -54q0 -33 -21.5 -54.5t-53.5 -21.5q-34 0 -55 21t-21 55z" />
<glyph unicode="&#xa9;" horiz-adv-x="1570" d="M143 768q0 130 51.5 248t137.5 203.5t204.5 136.5t247.5 51q130 0 248.5 -51t205 -136.5t138 -203.5t51.5 -248t-51.5 -248t-138 -203.5t-205 -136.5t-248.5 -51q-129 0 -247.5 51t-204.5 136.5t-137.5 203.5t-51.5 248zM221 768q0 -114 45 -218.5t121 -179t180 -119 t217 -44.5q153 0 283.5 75t206.5 204t76 282t-76 282t-206.5 204t-283.5 75q-113 0 -217 -44.5t-180 -119t-121 -179t-45 -218.5zM449 772q0 137 97.5 234.5t233.5 97.5q94 0 171.5 -50.5t129.5 -150.5l-86 -39q-78 144 -215 144q-97 0 -166 -69.5t-69 -166.5t69 -166 t166 -69q131 0 211 133q40 -10 90 -31q-52 -98 -129.5 -148.5t-171.5 -50.5q-136 0 -233.5 97.5t-97.5 234.5z" />
<glyph unicode="&#xab;" horiz-adv-x="829" d="M92 492l289 258l49 -54l-233 -207l235 -225l-51 -51zM399 492l289 258l49 -54l-233 -207l235 -225l-51 -51z" />
<glyph unicode="&#xad;" horiz-adv-x="856" d="M123 457v61h610v-61h-610z" />
<glyph unicode="&#xae;" horiz-adv-x="1005" d="M92 1147q0 169 121 289t289 120q169 0 290 -120t121 -289q0 -168 -121 -288t-290 -120q-168 0 -289 120t-121 288zM143 1147q0 -149 105.5 -254t253.5 -105q151 0 256.5 105t105.5 254q0 151 -105.5 255.5t-256.5 104.5q-148 0 -253.5 -105t-105.5 -255zM406 952v391h108 q51 0 87 -32.5t36 -77.5q0 -63 -82 -105l96 -176h-51l-94 172h-53v-172h-47zM453 1163h61q30 0 53 20t23 50t-23 51t-53 21h-61v-142z" />
<glyph unicode="&#xaf;" horiz-adv-x="784" d="M41 1206v82h704v-82h-704z" />
<glyph unicode="&#xb0;" horiz-adv-x="976" d="M123 1184q0 152 107 259t259 107q151 0 258 -107t107 -259q0 -151 -107 -258t-258 -107q-152 0 -259 107t-107 258zM199 1184q0 -119 85 -204t205 -85q119 0 204 85.5t85 203.5q0 120 -85 205.5t-204 85.5q-120 0 -205 -85.5t-85 -205.5z" />
<glyph unicode="&#xb1;" horiz-adv-x="1429" d="M143 0v61h1143v-61h-1143zM143 457v61h539v305h66v-305h538v-61h-538v-305h-66v305h-539z" />
<glyph unicode="&#xb4;" horiz-adv-x="0" d="M-63 1174l235 362h123l-315 -362h-43z" />
<glyph unicode="&#xb6;" horiz-adv-x="1042" d="M61 1061q0 196 145 335.5t349 139.5h305v-1536h-63v1475h-209v-1475h-64v586q-203 25 -333 159t-130 316z" />
<glyph unicode="&#xb7;" horiz-adv-x="0" d="M-106 489q0 34 25 59t61 25q38 0 62 -24t24 -60q0 -38 -24 -62t-62 -24q-37 0 -61.5 24.5t-24.5 61.5z" />
<glyph unicode="&#xb8;" horiz-adv-x="1185" d="M432 -440l33 80q25 -4 52.5 -5t62 3t61.5 14t45.5 32t18.5 54q0 36 -19 60t-46.5 32.5t-60 12t-59.5 -0.5l62 166l61 -8q-31 0 -51 -96q86 2 145.5 -43.5t59.5 -122.5q0 -53 -25 -91t-63.5 -57.5t-89.5 -28t-96 -8t-91 6.5z" />
<glyph unicode="&#xbb;" horiz-adv-x="829" d="M92 264l234 225l-232 207l47 54l291 -258l-291 -279zM399 264l234 225l-232 207l48 54l290 -258l-290 -279z" />
<glyph unicode="&#xbf;" horiz-adv-x="1026" d="M102 377q0 92 45 164.5t127 150.5q50 46 68 64q39 39 60.5 64t43 67.5t21.5 83.5v182h90v-184q0 -41 -12.5 -77t-41 -72t-52.5 -60.5t-68 -65.5q-46 -42 -72 -69t-58.5 -69t-47.5 -86t-15 -93q0 -129 95 -220t227 -91q123 0 216.5 80.5t105.5 197.5h88 q-12 -154 -130 -259t-280 -105q-168 0 -289 116.5t-121 280.5zM440 1489q0 29 20.5 48t51.5 19t51.5 -19t20.5 -48q0 -31 -20.5 -50.5t-51.5 -19.5t-51.5 19.5t-20.5 50.5z" />
<glyph unicode="&#xc0;" horiz-adv-x="1335" d="M10 0l660 1556l657 -1556h-96l-146 346h-831l-148 -346h-96zM285 420h770l-385 930zM332 2042h123l237 -363h-45z" />
<glyph unicode="&#xc1;" horiz-adv-x="1335" d="M10 0l660 1556l657 -1556h-96l-146 346h-831l-148 -346h-96zM285 420h770l-385 930zM647 1679l238 363h123l-316 -363h-45z" />
<glyph unicode="&#xc2;" horiz-adv-x="1335" d="M10 0l660 1556l657 -1556h-96l-146 346h-831l-148 -346h-96zM285 420h770l-385 930zM418 1679l180 232h143l181 -232h-84l-170 181l-168 -181h-82z" />
<glyph unicode="&#xc3;" horiz-adv-x="1335" d="M10 0l660 1556l657 -1556h-96l-146 346h-831l-148 -346h-96zM285 420h770l-385 930zM313 1714q18 36 34 61.5t40.5 54.5t55.5 44.5t67 15.5q38 0 84 -21t82 -45.5t78.5 -45.5t72.5 -21q36 0 69.5 41t55.5 88l74 -28q-81 -179 -199 -179q-48 0 -108 33.5t-115.5 66.5 t-93.5 33t-71.5 -41t-53.5 -88z" />
<glyph unicode="&#xc4;" horiz-adv-x="1335" d="M10 0l660 1556l657 -1556h-96l-146 346h-831l-148 -346h-96zM285 420h770l-385 930zM414 1755q0 33 20 54.5t53 21.5q34 0 56 -22t22 -54q0 -34 -22 -55t-56 -21q-33 0 -53 21t-20 55zM774 1755q0 32 22 54t56 22q31 0 52.5 -22t21.5 -54q0 -33 -21.5 -54.5t-52.5 -21.5 q-34 0 -56 21t-22 55z" />
<glyph unicode="&#xc5;" horiz-adv-x="1335" d="M10 0l647 1526q-64 4 -108.5 51.5t-44.5 112.5q0 69 48.5 117t117.5 48q68 0 117 -48t49 -117q0 -64 -44.5 -111.5t-109.5 -52.5l645 -1526h-96l-146 346h-831l-148 -346h-96zM285 420h770l-385 930zM557 1690q0 -46 33 -80.5t80 -34.5q45 0 78.5 34.5t33.5 80.5 q0 47 -33 81.5t-79 34.5q-49 0 -81 -34t-32 -82z" />
<glyph unicode="&#xc6;" horiz-adv-x="1935" d="M145 0l957 1536h721v-80h-658v-633h557v-80h-557v-663h658v-80h-738v451h-571l-276 -451h-93zM561 530h524v822z" />
<glyph unicode="&#xc7;" horiz-adv-x="1558" d="M143 768q0 128 40 248t114 217t171.5 170t219 113t250.5 40q151 0 293.5 -54.5t249.5 -158.5l-62 -57q-210 184 -481 184q-115 0 -223 -35.5t-195 -100.5t-153 -151.5t-102 -193.5t-36 -221t36 -221t102 -193.5t153 -151.5t195 -100.5t223 -35.5q260 0 481 184l64 -57 q-105 -100 -242.5 -155t-286.5 -58q-26 -26 -36 -91q86 2 145 -43t59 -122q0 -53 -25 -91.5t-63 -57.5t-89 -28t-96 -8.5t-91 6.5l33 80q32 -5 67.5 -4.5t77 7.5t68 31.5t26.5 64.5q0 36 -18.5 60t-46.5 32.5t-60 12t-59 -0.5l55 152q-207 10 -381 117.5t-275.5 285.5 t-101.5 385z" />
<glyph unicode="&#xc8;" horiz-adv-x="1110" d="M184 0v1536h783v-86h-701v-639h615v-86h-615v-639h701v-86h-783zM238 2042h122l238 -363h-45z" />
<glyph unicode="&#xc9;" horiz-adv-x="1110" d="M184 0v1536h783v-86h-701v-639h615v-86h-615v-639h701v-86h-783zM553 1679l238 363h122l-315 -363h-45z" />
<glyph unicode="&#xca;" horiz-adv-x="1110" d="M184 0v1536h783v-86h-701v-639h615v-86h-615v-639h701v-86h-783zM324 1679l180 232h143l180 -232h-84l-170 181l-167 -181h-82z" />
<glyph unicode="&#xcb;" horiz-adv-x="1110" d="M184 0v1536h783v-86h-701v-639h615v-86h-615v-639h701v-86h-783zM319 1755q0 33 20.5 54.5t53.5 21.5q34 0 56 -22t22 -54q0 -34 -22 -55t-56 -21t-54 21t-20 55zM680 1755q0 32 22 54t56 22q31 0 52 -22t21 -54q0 -33 -21 -54.5t-52 -21.5q-34 0 -56 21t-22 55z" />
<glyph unicode="&#xcc;" horiz-adv-x="512" d="M-82 2042h123l235 -363h-43zM205 0v1536h100v-1536h-100z" />
<glyph unicode="&#xcd;" horiz-adv-x="512" d="M205 0v1536h100v-1536h-100zM233 1679l236 363h123l-316 -363h-43z" />
<glyph unicode="&#xce;" horiz-adv-x="512" d="M4 1679l180 232h144l180 -232h-86l-168 181l-168 -181h-82zM205 0v1536h100v-1536h-100z" />
<glyph unicode="&#xcf;" horiz-adv-x="512" d="M-2 1755q0 33 21.5 54.5t54.5 21.5q32 0 54 -22t22 -54q0 -33 -21.5 -54.5t-54.5 -21.5q-34 0 -55 21t-21 55zM205 0v1536h100v-1536h-100zM360 1755q0 33 21.5 54.5t54.5 21.5q32 0 54 -22t22 -54q0 -33 -21.5 -54.5t-54.5 -21.5q-34 0 -55 21t-21 55z" />
<glyph unicode="&#xd0;" horiz-adv-x="1464" d="M4 725v61h178v750h332q368 0 586.5 -203t218.5 -561q0 -237 -100 -412.5t-281.5 -267.5t-423.5 -92h-332v725h-178zM264 86h250q330 0 524.5 181.5t194.5 504.5q0 324 -194.5 501t-524.5 177h-250v-664h363v-61h-363v-639z" />
<glyph unicode="&#xd1;" horiz-adv-x="1515" d="M184 0v1556l1065 -1349v1329h82v-1567l-1065 1334v-1303h-82zM418 1714q18 36 34 61.5t40.5 54.5t55 44.5t66.5 15.5q38 0 84.5 -21t82.5 -45.5t78.5 -45.5t72.5 -21q36 0 69.5 41t55.5 88l73 -28q-81 -179 -198 -179q-38 0 -84.5 21t-82.5 45.5t-78.5 45.5t-72.5 21 q-38 0 -71.5 -41t-53.5 -88z" />
<glyph unicode="&#xd2;" horiz-adv-x="1871" d="M143 768q0 160 63.5 306t170 251.5t253 168t306.5 62.5t306.5 -62.5t253 -168t170 -251.5t63.5 -306t-63.5 -306.5t-170 -251.5t-253 -167.5t-306.5 -62.5t-306.5 62.5t-253 167.5t-170 251.5t-63.5 306.5zM229 768q0 -191 96 -353t258.5 -255.5t352.5 -93.5 q142 0 272.5 55.5t225.5 149t151.5 224t56.5 273.5q0 114 -36 221t-102 193.5t-153 151.5t-194 100.5t-221 35.5q-115 0 -222.5 -35.5t-194.5 -100.5t-152.5 -151.5t-101.5 -193.5t-36 -221zM598 2042h123l237 -363h-45z" />
<glyph unicode="&#xd3;" horiz-adv-x="1871" d="M143 768q0 160 63.5 306t170 251.5t253 168t306.5 62.5t306.5 -62.5t253 -168t170 -251.5t63.5 -306t-63.5 -306.5t-170 -251.5t-253 -167.5t-306.5 -62.5t-306.5 62.5t-253 167.5t-170 251.5t-63.5 306.5zM229 768q0 -191 96 -353t258.5 -255.5t352.5 -93.5 q142 0 272.5 55.5t225.5 149t151.5 224t56.5 273.5q0 114 -36 221t-102 193.5t-153 151.5t-194 100.5t-221 35.5q-115 0 -222.5 -35.5t-194.5 -100.5t-152.5 -151.5t-101.5 -193.5t-36 -221zM913 1679l238 363h123l-316 -363h-45z" />
<glyph unicode="&#xd4;" horiz-adv-x="1871" d="M143 768q0 160 63.5 306t170 251.5t253 168t306.5 62.5t306.5 -62.5t253 -168t170 -251.5t63.5 -306t-63.5 -306.5t-170 -251.5t-253 -167.5t-306.5 -62.5t-306.5 62.5t-253 167.5t-170 251.5t-63.5 306.5zM229 768q0 -191 96 -353t258.5 -255.5t352.5 -93.5 q142 0 272.5 55.5t225.5 149t151.5 224t56.5 273.5q0 114 -36 221t-102 193.5t-153 151.5t-194 100.5t-221 35.5q-115 0 -222.5 -35.5t-194.5 -100.5t-152.5 -151.5t-101.5 -193.5t-36 -221zM684 1679l180 232h144l180 -232h-84l-170 181l-168 -181h-82z" />
<glyph unicode="&#xd5;" horiz-adv-x="1871" d="M143 768q0 160 63.5 306t170 251.5t253 168t306.5 62.5t306.5 -62.5t253 -168t170 -251.5t63.5 -306t-63.5 -306.5t-170 -251.5t-253 -167.5t-306.5 -62.5t-306.5 62.5t-253 167.5t-170 251.5t-63.5 306.5zM229 768q0 -191 96 -353t258.5 -255.5t352.5 -93.5 q142 0 272.5 55.5t225.5 149t151.5 224t56.5 273.5q0 114 -36 221t-102 193.5t-153 151.5t-194 100.5t-221 35.5q-115 0 -222.5 -35.5t-194.5 -100.5t-152.5 -151.5t-101.5 -193.5t-36 -221zM580 1714q18 36 34 61.5t40.5 54.5t55 44.5t66.5 15.5q38 0 84.5 -21t82.5 -45.5 t78.5 -45.5t72.5 -21q36 0 69.5 41t55.5 88l73 -28q-81 -179 -198 -179q-38 0 -84.5 21t-82.5 45.5t-78.5 45.5t-72.5 21q-38 0 -71.5 -41t-53.5 -88z" />
<glyph unicode="&#xd6;" horiz-adv-x="1871" d="M143 768q0 160 63.5 306t170 251.5t253 168t306.5 62.5t306.5 -62.5t253 -168t170 -251.5t63.5 -306t-63.5 -306.5t-170 -251.5t-253 -167.5t-306.5 -62.5t-306.5 62.5t-253 167.5t-170 251.5t-63.5 306.5zM229 768q0 -191 96 -353t258.5 -255.5t352.5 -93.5 q142 0 272.5 55.5t225.5 149t151.5 224t56.5 273.5q0 114 -36 221t-102 193.5t-153 151.5t-194 100.5t-221 35.5q-115 0 -222.5 -35.5t-194.5 -100.5t-152.5 -151.5t-101.5 -193.5t-36 -221zM680 1755q0 33 20.5 54.5t53.5 21.5q34 0 55.5 -21.5t21.5 -54.5q0 -34 -21.5 -55 t-55.5 -21t-54 21t-20 55zM1040 1755q0 32 22 54t56 22q31 0 52.5 -22t21.5 -54q0 -33 -21.5 -54.5t-52.5 -21.5q-34 0 -56 21t-22 55z" />
<glyph unicode="&#xd7;" d="M217 94l387 387l-387 387l45 47l387 -389l389 389l45 -47l-387 -387l387 -387l-45 -47l-389 389l-387 -389z" />
<glyph unicode="&#xd8;" horiz-adv-x="1871" d="M143 768q0 160 63.5 306t170 251.5t253 168t306.5 62.5q212 0 432 -129l84 129h51l-100 -151q326 -256 326 -637q0 -160 -63.5 -306.5t-170 -251.5t-253 -167.5t-306.5 -62.5q-206 0 -408 110l-71 -110h-51l88 133q-169 127 -260 293.5t-91 361.5zM229 768 q0 -172 81 -322.5t231 -261.5l780 1174q-194 112 -385 112q-115 0 -222.5 -35.5t-194.5 -100.5t-152.5 -151.5t-101.5 -193.5t-36 -221zM575 162q185 -96 361 -96q142 0 272.5 55.5t225.5 149t151.5 224t56.5 273.5q0 327 -286 567z" />
<glyph unicode="&#xd9;" horiz-adv-x="1331" d="M174 416v1120h88v-1120q0 -140 116.5 -245t287.5 -105q175 0 289 104.5t114 245.5v1120h88v-1120q0 -113 -64.5 -213t-178.5 -161.5t-248 -61.5q-133 0 -247 61.5t-179.5 162t-65.5 212.5zM328 2042h123l237 -363h-45z" />
<glyph unicode="&#xda;" horiz-adv-x="1331" d="M174 416v1120h88v-1120q0 -140 116.5 -245t287.5 -105q175 0 289 104.5t114 245.5v1120h88v-1120q0 -113 -64.5 -213t-178.5 -161.5t-248 -61.5q-133 0 -247 61.5t-179.5 162t-65.5 212.5zM643 1679l238 363h123l-316 -363h-45z" />
<glyph unicode="&#xdb;" horiz-adv-x="1331" d="M174 416v1120h88v-1120q0 -140 116.5 -245t287.5 -105q175 0 289 104.5t114 245.5v1120h88v-1120q0 -113 -64.5 -213t-178.5 -161.5t-248 -61.5q-133 0 -247 61.5t-179.5 162t-65.5 212.5zM414 1679l180 232h143l181 -232h-84l-170 181l-168 -181h-82z" />
<glyph unicode="&#xdc;" horiz-adv-x="1331" d="M174 416v1120h88v-1120q0 -140 116.5 -245t287.5 -105q175 0 289 104.5t114 245.5v1120h88v-1120q0 -113 -64.5 -213t-178.5 -161.5t-248 -61.5q-133 0 -247 61.5t-179.5 162t-65.5 212.5zM410 1755q0 33 20 54.5t53 21.5q34 0 56 -22t22 -54q0 -34 -22 -55t-56 -21 q-33 0 -53 21t-20 55zM770 1755q0 32 22 54t56 22q31 0 52.5 -22t21.5 -54q0 -33 -21.5 -54.5t-52.5 -21.5q-34 0 -56 21t-22 55z" />
<glyph unicode="&#xdd;" horiz-adv-x="1144" d="M10 1536h105l456 -688l461 688h105l-521 -778v-758h-88v758zM553 1679l233 363h123l-315 -363h-41z" />
<glyph unicode="&#xdf;" horiz-adv-x="1144" d="M184 0v1202q0 138 100.5 236t241.5 98t241.5 -98t100.5 -236q0 -157 -159 -284q152 -76 232.5 -194t80.5 -259q0 -192 -136 -331.5t-337 -151.5v79q167 12 279 128t112 276t-112 275.5t-279 125.5v84q103 10 170 82t67 170q0 104 -76.5 179t-183.5 75t-183.5 -75 t-76.5 -179v-1202h-82z" />
<glyph unicode="&#xe0;" d="M123 481q0 136 67.5 251.5t183 183t251.5 67.5q126 0 235 -59t178 -160v199h82v-963h-82v199q-69 -101 -178 -160t-235 -59q-136 0 -251.5 67t-183 182.5t-67.5 251.5zM211 481q0 -170 122 -291.5t292 -121.5t291.5 121.5t121.5 291.5t-121.5 292t-291.5 122t-292 -122 t-122 -292zM287 1468h123l237 -362h-45z" />
<glyph unicode="&#xe1;" d="M123 481q0 136 67.5 251.5t183 183t251.5 67.5q126 0 235 -59t178 -160v199h82v-963h-82v199q-69 -101 -178 -160t-235 -59q-136 0 -251.5 67t-183 182.5t-67.5 251.5zM211 481q0 -170 122 -291.5t292 -121.5t291.5 121.5t121.5 291.5t-121.5 292t-291.5 122t-292 -122 t-122 -292zM602 1106l238 362h123l-316 -362h-45z" />
<glyph unicode="&#xe2;" d="M123 481q0 136 67.5 251.5t183 183t251.5 67.5q126 0 235 -59t178 -160v199h82v-963h-82v199q-69 -101 -178 -160t-235 -59q-136 0 -251.5 67t-183 182.5t-67.5 251.5zM211 481q0 -170 122 -291.5t292 -121.5t291.5 121.5t121.5 291.5t-121.5 292t-291.5 122t-292 -122 t-122 -292zM373 1106l180 231h143l181 -231h-84l-170 180l-168 -180h-82z" />
<glyph unicode="&#xe3;" d="M123 481q0 136 67.5 251.5t183 183t251.5 67.5q126 0 235 -59t178 -160v199h82v-963h-82v199q-69 -101 -178 -160t-235 -59q-136 0 -251.5 67t-183 182.5t-67.5 251.5zM211 481q0 -170 122 -291.5t292 -121.5t291.5 121.5t121.5 291.5t-121.5 292t-291.5 122t-292 -122 t-122 -292zM268 1141q18 36 34 61.5t40.5 54.5t55.5 44.5t67 15.5q48 0 108 -33.5t115.5 -66.5t93.5 -33q36 0 69.5 41t55.5 88l74 -29q-80 -178 -199 -178q-38 0 -84 21t-82 45.5t-78.5 45.5t-72.5 21q-38 0 -71.5 -41t-53.5 -88z" />
<glyph unicode="&#xe4;" d="M123 481q0 136 67.5 251.5t183 183t251.5 67.5q126 0 235 -59t178 -160v199h82v-963h-82v199q-69 -101 -178 -160t-235 -59q-136 0 -251.5 67t-183 182.5t-67.5 251.5zM211 481q0 -170 122 -291.5t292 -121.5t291.5 121.5t121.5 291.5t-121.5 292t-291.5 122t-292 -122 t-122 -292zM369 1182q0 33 20 54t53 21q34 0 56 -21.5t22 -53.5q0 -34 -22 -55t-56 -21q-33 0 -53 21t-20 55zM729 1182q0 32 22 53.5t56 21.5q31 0 52.5 -21.5t21.5 -53.5q0 -33 -21.5 -54.5t-52.5 -21.5q-34 0 -56 21t-22 55z" />
<glyph unicode="&#xe5;" d="M123 481q0 136 67.5 251.5t183 183t251.5 67.5q126 0 235 -59t178 -160v199h82v-963h-82v199q-69 -101 -178 -160t-235 -59q-136 0 -251.5 67t-183 182.5t-67.5 251.5zM211 481q0 -170 122 -291.5t292 -121.5t291.5 121.5t121.5 291.5t-121.5 292t-291.5 122t-292 -122 t-122 -292zM459 1270q0 69 48.5 117.5t117.5 48.5q68 0 117 -48.5t49 -117.5q0 -67 -49 -115.5t-117 -48.5q-69 0 -117.5 48t-48.5 116zM512 1270q0 -46 33 -80.5t80 -34.5q45 0 78.5 34.5t33.5 80.5q0 47 -33 81.5t-79 34.5q-49 0 -81 -34t-32 -82z" />
<glyph unicode="&#xe6;" horiz-adv-x="1947" d="M113 258q0 87 51.5 158t132.5 104h526v146q0 78 -43.5 134t-108 80.5t-141.5 24.5q-81 0 -155 -36t-115 -103l-76 31q51 90 144.5 138t201.5 48q129 0 234 -63.5t131 -180.5q68 111 184 177.5t244 66.5q130 0 243 -61t183 -169t78 -239h-916v-47q-6 -170 116.5 -284.5 t297.5 -114.5q112 0 211.5 59t153.5 158l79 -37q-66 -124 -186 -196t-260 -72q-113 0 -216.5 50.5t-172.5 139.5q-89 -46 -274.5 -118t-245.5 -72q-124 0 -212.5 77.5t-88.5 200.5zM197 266q0 -88 67 -148.5t156 -60.5q59 0 137 26t201.5 82.5t134.5 61.5q-61 102 -70 222 h-506q-53 -27 -86.5 -76.5t-33.5 -106.5zM930 602h792q-40 128 -151 210.5t-246 82.5q-134 0 -245.5 -83t-149.5 -210z" />
<glyph unicode="&#xe7;" horiz-adv-x="1187" d="M123 481q0 136 67.5 251.5t183.5 183t253 67.5q141 0 260.5 -74t185.5 -200l-80 -33q-54 101 -153 160t-213 59q-172 0 -294 -122t-122 -292t122 -291.5t294 -121.5q114 0 213 58.5t151 158.5l82 -35q-61 -119 -178.5 -192t-251.5 -78q-12 -12 -22.5 -40.5t-14.5 -50.5 q86 2 145.5 -43t59.5 -122q0 -53 -25 -91.5t-63.5 -57.5t-89.5 -28t-96 -8.5t-91 6.5l33 80q32 -5 68 -4.5t77.5 7.5t68 31.5t26.5 64.5q0 36 -18.5 60t-46.5 32.5t-60 12t-59 -0.5l55 154q-196 14 -331.5 158t-135.5 341z" />
<glyph unicode="&#xe8;" horiz-adv-x="1249" d="M123 481q0 136 67.5 251.5t183 183t251.5 67.5q199 0 343 -136t158 -333h-915v-33q0 -170 122 -291.5t292 -121.5q116 0 213 59t151 158l80 -37q-64 -122 -182.5 -195t-261.5 -73q-136 0 -251.5 67t-183 182.5t-67.5 251.5zM227 602h795q-40 128 -149.5 210.5 t-247.5 82.5t-248 -82.5t-150 -210.5zM287 1468h123l237 -362h-45z" />
<glyph unicode="&#xe9;" horiz-adv-x="1249" d="M123 481q0 136 67.5 251.5t183 183t251.5 67.5q199 0 343 -136t158 -333h-915v-33q0 -170 122 -291.5t292 -121.5q116 0 213 59t151 158l80 -37q-64 -122 -182.5 -195t-261.5 -73q-136 0 -251.5 67t-183 182.5t-67.5 251.5zM227 602h795q-40 128 -149.5 210.5 t-247.5 82.5t-248 -82.5t-150 -210.5zM602 1106l238 362h123l-316 -362h-45z" />
<glyph unicode="&#xea;" horiz-adv-x="1249" d="M123 481q0 136 67.5 251.5t183 183t251.5 67.5q199 0 343 -136t158 -333h-915v-33q0 -170 122 -291.5t292 -121.5q116 0 213 59t151 158l80 -37q-64 -122 -182.5 -195t-261.5 -73q-136 0 -251.5 67t-183 182.5t-67.5 251.5zM227 602h795q-40 128 -149.5 210.5 t-247.5 82.5t-248 -82.5t-150 -210.5zM373 1106l180 231h143l181 -231h-84l-170 180l-168 -180h-82z" />
<glyph unicode="&#xeb;" horiz-adv-x="1249" d="M123 481q0 136 67.5 251.5t183 183t251.5 67.5q199 0 343 -136t158 -333h-915v-33q0 -170 122 -291.5t292 -121.5q116 0 213 59t151 158l80 -37q-64 -122 -182.5 -195t-261.5 -73q-136 0 -251.5 67t-183 182.5t-67.5 251.5zM227 602h795q-40 128 -149.5 210.5 t-247.5 82.5t-248 -82.5t-150 -210.5zM369 1182q0 33 20 54t53 21q34 0 56 -21.5t22 -53.5q0 -34 -22 -55t-56 -21q-33 0 -53 21t-20 55zM729 1182q0 32 22 53.5t56 21.5q31 0 52.5 -21.5t21.5 -53.5q0 -33 -21.5 -54.5t-52.5 -21.5q-34 0 -56 21t-22 55z" />
<glyph unicode="&#xec;" horiz-adv-x="518" d="M-78 1468h123l234 -362h-41zM215 0v963h88v-963h-88z" />
<glyph unicode="&#xed;" horiz-adv-x="518" d="M215 0v963h88v-963h-88zM238 1106l233 362h123l-315 -362h-41z" />
<glyph unicode="&#xee;" horiz-adv-x="518" d="M6 1106l180 231h144l180 -231h-84l-170 180l-168 -180h-82zM215 0v963h88v-963h-88z" />
<glyph unicode="&#xef;" horiz-adv-x="518" d="M0 1182q0 32 22 53.5t56 21.5q31 0 52.5 -21.5t21.5 -53.5q0 -33 -21.5 -54.5t-52.5 -21.5q-34 0 -56 21t-22 55zM215 0v963h88v-963h-88zM365 1182q0 33 20 54t53 21q34 0 56 -21.5t22 -53.5q0 -34 -22 -55t-56 -21q-33 0 -53 21t-20 55z" />
<glyph unicode="&#xf1;" horiz-adv-x="1056" d="M184 0v963h82v-140q56 74 139.5 117t174.5 43q151 0 247.5 -105.5t96.5 -259.5v-618h-82v618q0 116 -82 198.5t-197 82.5q-116 0 -206.5 -80t-90.5 -194v-625h-82zM197 1141q19 37 35 61.5t40.5 54t55 45t65.5 15.5q39 0 85.5 -21t82.5 -45.5t78.5 -45.5t73.5 -21 q35 0 68 41.5t55 87.5l73 -29q-80 -178 -196 -178q-39 0 -85.5 21t-82.5 45.5t-78.5 45.5t-73.5 21q-38 0 -70 -40.5t-53 -88.5z" />
<glyph unicode="&#xf2;" horiz-adv-x="1249" d="M123 481q0 136 67.5 251.5t183 183t251.5 67.5t251.5 -67.5t182.5 -183t67 -251.5q0 -102 -40 -194.5t-107 -159.5t-159.5 -107t-194.5 -40q-136 0 -251.5 67t-183 182.5t-67.5 251.5zM211 481q0 -170 122 -291.5t292 -121.5t291.5 121.5t121.5 291.5t-121.5 292 t-291.5 122t-292 -122t-122 -292zM287 1468h123l237 -362h-45z" />
<glyph unicode="&#xf3;" horiz-adv-x="1249" d="M123 481q0 136 67.5 251.5t183 183t251.5 67.5t251.5 -67.5t182.5 -183t67 -251.5q0 -102 -40 -194.5t-107 -159.5t-159.5 -107t-194.5 -40q-136 0 -251.5 67t-183 182.5t-67.5 251.5zM211 481q0 -170 122 -291.5t292 -121.5t291.5 121.5t121.5 291.5t-121.5 292 t-291.5 122t-292 -122t-122 -292zM602 1106l238 362h123l-316 -362h-45z" />
<glyph unicode="&#xf4;" horiz-adv-x="1249" d="M123 481q0 136 67.5 251.5t183 183t251.5 67.5t251.5 -67.5t182.5 -183t67 -251.5q0 -102 -40 -194.5t-107 -159.5t-159.5 -107t-194.5 -40q-136 0 -251.5 67t-183 182.5t-67.5 251.5zM211 481q0 -170 122 -291.5t292 -121.5t291.5 121.5t121.5 291.5t-121.5 292 t-291.5 122t-292 -122t-122 -292zM373 1106l180 231h143l181 -231h-84l-170 180l-168 -180h-82z" />
<glyph unicode="&#xf5;" horiz-adv-x="1249" d="M123 481q0 136 67.5 251.5t183 183t251.5 67.5t251.5 -67.5t182.5 -183t67 -251.5q0 -102 -40 -194.5t-107 -159.5t-159.5 -107t-194.5 -40q-136 0 -251.5 67t-183 182.5t-67.5 251.5zM211 481q0 -170 122 -291.5t292 -121.5t291.5 121.5t121.5 291.5t-121.5 292 t-291.5 122t-292 -122t-122 -292zM268 1141q18 36 34 61.5t40.5 54.5t55.5 44.5t67 15.5q48 0 108 -33.5t115.5 -66.5t93.5 -33q36 0 69.5 41t55.5 88l74 -29q-80 -178 -199 -178q-38 0 -84 21t-82 45.5t-78.5 45.5t-72.5 21q-38 0 -71.5 -41t-53.5 -88z" />
<glyph unicode="&#xf6;" horiz-adv-x="1249" d="M123 481q0 136 67.5 251.5t183 183t251.5 67.5t251.5 -67.5t182.5 -183t67 -251.5q0 -102 -40 -194.5t-107 -159.5t-159.5 -107t-194.5 -40q-136 0 -251.5 67t-183 182.5t-67.5 251.5zM211 481q0 -170 122 -291.5t292 -121.5t291.5 121.5t121.5 291.5t-121.5 292 t-291.5 122t-292 -122t-122 -292zM369 1182q0 33 20 54t53 21q34 0 56 -21.5t22 -53.5q0 -34 -22 -55t-56 -21q-33 0 -53 21t-20 55zM729 1182q0 32 22 53.5t56 21.5q31 0 52.5 -21.5t21.5 -53.5q0 -33 -21.5 -54.5t-52.5 -21.5q-34 0 -56 21t-22 55z" />
<glyph unicode="&#xf7;" horiz-adv-x="1429" d="M143 446v66h1143v-66h-1143zM659 137q0 31 19.5 50.5t48.5 19.5q31 0 50.5 -19.5t19.5 -50.5q0 -32 -19.5 -51.5t-50.5 -19.5q-30 0 -49 19.5t-19 51.5zM659 825q0 32 19 52t49 20q31 0 50.5 -20t19.5 -52q0 -31 -19.5 -50t-50.5 -19q-29 0 -48.5 19t-19.5 50z" />
<glyph unicode="&#xf8;" horiz-adv-x="1249" d="M123 481q0 136 67.5 251.5t183 183t251.5 67.5q95 0 202 -43l56 107h80l-72 -140q114 -80 174.5 -189.5t60.5 -236.5q0 -102 -40 -194.5t-107 -159.5t-159.5 -107t-194.5 -40q-85 0 -189 36l-51 -104h-80l68 135q-120 80 -185 192t-65 242zM211 481q0 -208 201 -356 l376 739q-94 31 -163 31q-170 0 -292 -122t-122 -292zM475 92q89 -24 150 -24q170 0 291.5 121.5t121.5 291.5q0 200 -188 348z" />
<glyph unicode="&#xf9;" horiz-adv-x="1058" d="M154 346v617h82v-617q0 -114 88 -200.5t204 -86.5q119 0 207 86t88 201v617h82v-617q0 -152 -110.5 -259t-266.5 -107q-155 0 -264.5 107t-109.5 259zM193 1468h122l236 -362h-43z" />
<glyph unicode="&#xfa;" horiz-adv-x="1058" d="M154 346v617h82v-617q0 -114 88 -200.5t204 -86.5q119 0 207 86t88 201v617h82v-617q0 -152 -110.5 -259t-266.5 -107q-155 0 -264.5 107t-109.5 259zM508 1106l235 362h123l-315 -362h-43z" />
<glyph unicode="&#xfb;" horiz-adv-x="1058" d="M154 346v617h82v-617q0 -114 88 -200.5t204 -86.5q119 0 207 86t88 201v617h82v-617q0 -152 -110.5 -259t-266.5 -107q-155 0 -264.5 107t-109.5 259zM279 1106l180 231h143l180 -231h-86l-168 180l-168 -180h-81z" />
<glyph unicode="&#xfc;" horiz-adv-x="1058" d="M154 346v617h82v-617q0 -114 88 -200.5t204 -86.5q119 0 207 86t88 201v617h82v-617q0 -152 -110.5 -259t-266.5 -107q-155 0 -264.5 107t-109.5 259zM272 1182q0 32 21 53.5t55 21.5q32 0 54 -21.5t22 -53.5q0 -33 -21.5 -54.5t-54.5 -21.5q-34 0 -55 21t-21 55z M635 1182q0 32 21.5 53.5t54.5 21.5q32 0 53.5 -21.5t21.5 -53.5q0 -34 -21 -55t-54 -21q-34 0 -55 21t-21 55z" />
<glyph unicode="&#xfd;" horiz-adv-x="1085" d="M80 963h102l381 -809l344 809h101l-637 -1465h-99l246 553zM522 1106l236 362h123l-316 -362h-43z" />
<glyph unicode="&#xff;" horiz-adv-x="1085" d="M80 963h102l381 -809l344 809h101l-637 -1465h-99l246 553zM287 1182q0 33 21 54t54 21q32 0 54 -21.5t22 -53.5q0 -33 -21.5 -54.5t-54.5 -21.5q-34 0 -54.5 21t-20.5 55zM649 1182q0 32 21.5 53.5t54.5 21.5q32 0 54 -21.5t22 -53.5q0 -33 -21.5 -54.5t-54.5 -21.5 q-34 0 -55 21t-21 55z" />
<glyph unicode="&#x152;" horiz-adv-x="2570" d="M143 768q0 160 63.5 306t170 251.5t253 168t306.5 62.5q227 0 418 -119.5t291 -316.5v416h782v-86h-701v-625v-14h615v-86h-615v-14v-625h701v-86h-782v416q-100 -197 -291 -316.5t-418 -119.5q-160 0 -306.5 62.5t-253 167.5t-170 251.5t-63.5 306.5zM229 768 q0 -191 96 -353t258.5 -255.5t352.5 -93.5q142 0 272.5 55.5t225.5 149t151.5 224t56.5 273.5q0 114 -36 221t-102 193.5t-153 151.5t-194 100.5t-221 35.5q-115 0 -222.5 -35.5t-194.5 -100.5t-152.5 -151.5t-101.5 -193.5t-36 -221z" />
<glyph unicode="&#x153;" horiz-adv-x="2164" d="M123 481q0 136 67.5 251.5t183 183t251.5 67.5q151 0 275 -82.5t183 -216.5q59 134 183.5 216.5t275.5 82.5q199 0 343.5 -136t158.5 -333h-916v-33q0 -170 122 -291.5t292 -121.5q117 0 214.5 59t150.5 158l80 -37q-64 -122 -183 -195t-262 -73q-151 0 -275.5 82.5 t-183.5 216.5q-59 -134 -183 -216.5t-275 -82.5q-136 0 -251.5 67t-183 182.5t-67.5 251.5zM211 481q0 -170 122 -291.5t292 -121.5t291.5 121.5t121.5 291.5t-121.5 292t-291.5 122t-292 -122t-122 -292zM1145 602h794q-40 128 -149.5 210.5t-247.5 82.5t-247.5 -82.5 t-149.5 -210.5z" />
<glyph unicode="&#x178;" horiz-adv-x="1144" d="M10 1536h105l456 -688l461 688h105l-521 -778v-758h-88v758zM315 1755q0 32 22 54t56 22q31 0 52.5 -22t21.5 -54q0 -33 -21.5 -54.5t-52.5 -21.5q-34 0 -56 21t-22 55zM680 1755q0 33 20.5 54.5t53.5 21.5q34 0 55.5 -21.5t21.5 -54.5q0 -34 -21.5 -55t-55.5 -21t-54 21 t-20 55z" />
<glyph unicode="&#x2c6;" horiz-adv-x="0" d="M-272 1153l180 231h143l180 -231h-84l-170 180l-167 -180h-82z" />
<glyph unicode="&#x2dc;" horiz-adv-x="0" d="M-377 1198q18 36 34 61.5t40.5 54.5t55.5 44.5t67 15.5q38 0 84 -21t82 -45.5t78.5 -45.5t72.5 -21q36 0 69.5 41t55.5 88l74 -29q-80 -178 -199 -178q-48 0 -108 33.5t-115.5 66.5t-93.5 33t-71.5 -41t-53.5 -88z" />
<glyph unicode="&#x2000;" horiz-adv-x="1021" />
<glyph unicode="&#x2001;" horiz-adv-x="2042" />
<glyph unicode="&#x2002;" horiz-adv-x="1021" />
<glyph unicode="&#x2003;" horiz-adv-x="2042" />
<glyph unicode="&#x2004;" horiz-adv-x="680" />
<glyph unicode="&#x2005;" horiz-adv-x="510" />
<glyph unicode="&#x2006;" horiz-adv-x="340" />
<glyph unicode="&#x2007;" horiz-adv-x="340" />
<glyph unicode="&#x2008;" horiz-adv-x="255" />
<glyph unicode="&#x2009;" horiz-adv-x="408" />
<glyph unicode="&#x200a;" horiz-adv-x="113" />
<glyph unicode="&#x2010;" horiz-adv-x="856" d="M123 457v61h610v-61h-610z" />
<glyph unicode="&#x2011;" horiz-adv-x="856" d="M123 457v61h610v-61h-610z" />
<glyph unicode="&#x2012;" horiz-adv-x="856" d="M123 457v61h610v-61h-610z" />
<glyph unicode="&#x2013;" horiz-adv-x="1298" d="M184 446v82h930v-82h-930z" />
<glyph unicode="&#x2014;" horiz-adv-x="1572" d="M0 446v82h1573v-82h-1573z" />
<glyph unicode="&#x2018;" horiz-adv-x="395" d="M92 1049l164 487h47l-102 -487h-109z" />
<glyph unicode="&#x2019;" horiz-adv-x="395" d="M92 1049l103 487h108l-164 -487h-47z" />
<glyph unicode="&#x201a;" horiz-adv-x="403" d="M92 -240l90 447h131l-163 -447h-58z" />
<glyph unicode="&#x201c;" horiz-adv-x="688" d="M92 1049l164 487h47l-102 -487h-109zM387 1049l164 487h47l-102 -487h-109z" />
<glyph unicode="&#x201d;" horiz-adv-x="688" d="M92 1049l103 487h108l-164 -487h-47zM387 1049l102 487h109l-164 -487h-47z" />
<glyph unicode="&#x201e;" horiz-adv-x="649" d="M92 -240l90 447h131l-163 -447h-58zM338 -240l90 447h131l-164 -447h-57z" />
<glyph unicode="&#x2022;" horiz-adv-x="643" d="M154 489q0 69 49.5 117.5t118.5 48.5q71 0 119 -48t48 -118q0 -72 -47.5 -119.5t-119.5 -47.5q-70 0 -119 48t-49 119z" />
<glyph unicode="&#x2026;" horiz-adv-x="1683" d="M195 66q0 36 25 61t61 25q35 0 60.5 -26t25.5 -60q0 -36 -25 -61t-61 -25q-37 0 -61.5 24.5t-24.5 61.5zM756 66q0 36 25 61t61 25q35 0 60.5 -26t25.5 -60q0 -36 -25 -61t-61 -25q-37 0 -61.5 24.5t-24.5 61.5zM1317 66q0 36 25 61t61 25q35 0 60.5 -26t25.5 -60 q0 -36 -25 -61t-61 -25q-37 0 -61.5 24.5t-24.5 61.5z" />
<glyph unicode="&#x202f;" horiz-adv-x="408" />
<glyph unicode="&#x2039;" horiz-adv-x="522" d="M92 492l289 258l49 -54l-233 -207l235 -225l-51 -51z" />
<glyph unicode="&#x203a;" horiz-adv-x="522" d="M92 264l234 225l-232 207l47 54l291 -258l-291 -279z" />
<glyph unicode="&#x205f;" horiz-adv-x="510" />
<glyph unicode="&#x20ac;" horiz-adv-x="1439" d="M123 567v80h113q-11 94 -11 133q0 40 11 133h-113v80h131q82 248 288 395.5t470 147.5h305v-80h-305q-225 0 -404 -121t-272 -342h848v-80h-867q-12 -73 -12 -133t12 -133h867v-80h-848q91 -227 271.5 -357t404.5 -130h305v-80h-305q-262 0 -469 156t-289 411h-131z" />
<glyph unicode="&#x2122;" horiz-adv-x="1460" d="M102 1454v82h451v-82h-184v-584h-84v584h-183zM674 870v666h26l306 -428l303 428h28v-666h-82v455l-249 -352l-250 352v-455h-82z" />
<glyph unicode="&#x25fc;" horiz-adv-x="962" d="M0 0v963h963v-963h-963z" />
<glyph unicode="&#xfb01;" horiz-adv-x="1222" d="M102 885v78h177v335q0 113 68.5 190t184.5 77q60 0 89 -29v-88q-10 14 -38 22.5t-55 8.5q-79 0 -123.5 -51.5t-44.5 -129.5v-335h261v-78h-261v-885h-81v885h-177zM866 1227q0 32 22 54t54 22t54 -22t22 -54t-22 -54t-54 -22t-54 22t-22 54zM899 0v963h88v-963h-88z" />
<glyph unicode="&#xfb02;" horiz-adv-x="1173" d="M102 885v78h177v335q0 113 68.5 190t184.5 77q60 0 89 -29v-88q-10 14 -38 22.5t-55 8.5q-79 0 -123.5 -51.5t-44.5 -129.5v-335h261v-78h-261v-885h-81v885h-177zM877 0v1536h81v-1536h-81z" />
</font>
</defs>
</svg>
